# xmcd CD database file
#
# Track frame offsets:
#	182
#	12035
#	28395
#	43580
#	57480
#	69560
#	87287
#	97827
#	109997
#	122975
#
# Disc length: 1970 seconds
#
# Revision: 2
# Processed by: cddbd v1.5.1PL0 Copyright (c) Steve Scherf et al.
# Submitted via: CDex 1.51
#
DISCID=8507b00a
DTITLE=Marty Stuart - Hillbilly Rock
DYEAR=1989
DGENRE=Country
TTITLE0=Hillbilly Rock
TTITLE1=Western Girls
TTITLE2=Don't Leave Her Lonely Too Long
TTITLE3=The Coal Mine Blues
TTITLE4=The Wild One
TTITLE5=Me And Billy The Kid
TTITLE6=Cry Cry Cry
TTITLE7=When The Sun Goes Down
TTITLE8=Easy To Love (Hard To Hold)
TTITLE9=Since I Don't Have You
EXTD=YEAR: 1989
EXTT0=
EXTT1=
EXTT2=
EXTT3=
EXTT4=
EXTT5=
EXTT6=
EXTT7=
EXTT8=
EXTT9=
PLAYORDER=
